HIERARCHY
ROOT Hips
{
	OFFSET 0.000000 0.000000 0.000000
	CHANNELS 6 Xposition Yposition Zposition Xrotation Yrotation Zrotation
	JOINT LeftUpLeg_virtual
	{
		OFFSET 0.000000 0.000000 0.000000
		CHANNELS 3 Xrotation Yrotation Zrotation
		JOINT LeftUpLeg
		{
			OFFSET 15.427100 -6.655098 0.678600
			CHANNELS 3 Xrotation Yrotation Zrotation
			JOINT LeftLeg
			{
				OFFSET 4.081073 -39.591068 13.024000
				CHANNELS 3 Xrotation Yrotation Zrotation
				JOINT LeftFoot
				{
					OFFSET -4.081074 -37.707932 -15.979700
					CHANNELS 3 Xrotation Yrotation Zrotation
					JOINT LeftToeBase
					{
						OFFSET 5.346399 -15.068900 20.645000
						CHANNELS 3 Xrotation Yrotation Zrotation
						JOINT LeftToe_End
						{
							OFFSET 2.754700 0.931300 11.300900
							CHANNELS 3 Xrotation Yrotation Zrotation
							End Site
							{
								OFFSET 0 0 0
							}
						}
					}
				}
			}
		}
	}
	JOINT RightUpLeg_virtual
	{
		OFFSET 0.000000 0.000000 0.000000
		CHANNELS 3 Xrotation Yrotation Zrotation
		JOINT RightUpLeg
		{
			OFFSET -15.569500 -6.655098 0.678600
			CHANNELS 3 Xrotation Yrotation Zrotation
			JOINT RightLeg
			{
				OFFSET -4.081825 -39.591045 13.023800
				CHANNELS 3 Xrotation Yrotation Zrotation
				JOINT RightFoot
				{
					OFFSET 4.081824 -37.707954 -15.979600
					CHANNELS 3 Xrotation Yrotation Zrotation
					JOINT RightToeBase
					{
						OFFSET -5.346400 -15.068900 20.645000
						CHANNELS 3 Xrotation Yrotation Zrotation
						JOINT RightToe_End
						{
							OFFSET -2.754700 0.931300 11.300900
							CHANNELS 3 Xrotation Yrotation Zrotation
							End Site
							{
								OFFSET 0 0 0
							}
						}
					}
				}
			}
		}
	}
	JOINT Spine_virtual
	{
		OFFSET 0.000000 0.000000 0.000000
		CHANNELS 3 Xrotation Yrotation Zrotation
		JOINT Spine
		{
			OFFSET -0.279200 12.230698 -2.892100
			CHANNELS 3 Xrotation Yrotation Zrotation
			JOINT Spine1
			{
				OFFSET -0.232667 10.192268 -1.242267
				CHANNELS 3 Xrotation Yrotation Zrotation
				JOINT Spine1_split
				{
					OFFSET -0.232667 10.192268 -1.242267
					CHANNELS 3 Xrotation Yrotation Zrotation
					JOINT Spine2
					{
						OFFSET -0.232667 10.192268 -1.242267
						CHANNELS 3 Xrotation Yrotation Zrotation
						JOINT Neck_virtual
						{
							OFFSET 0.000000 0.000000 0.000000
							CHANNELS 3 Xrotation Yrotation Zrotation
							JOINT Neck
							{
								OFFSET -0.418800 17.814194 8.416900
								CHANNELS 3 Xrotation Yrotation Zrotation
								JOINT Head
								{
									OFFSET 0.000000 7.031097 3.806800
									CHANNELS 3 Xrotation Yrotation Zrotation
									JOINT HeadTop_End
									{
										OFFSET 0.000000 24.646606 12.978600
										CHANNELS 3 Xrotation Yrotation Zrotation
										End Site
										{
											OFFSET 0 0 0
										}
									}
								}
							}
						}
						JOINT LeftShoulder_virtual
						{
							OFFSET 0.000000 0.000000 0.000000
							CHANNELS 3 Xrotation Yrotation Zrotation
							JOINT LeftShoulder
							{
								OFFSET 8.476499 7.247704 -3.868750
								CHANNELS 3 Xrotation Yrotation Zrotation
								JOINT LeftShoulder_split
								{
									OFFSET 8.476499 7.247704 -3.868750
									CHANNELS 3 Xrotation Yrotation Zrotation
									JOINT LeftArm
									{
										OFFSET 9.308998 -2.777710 0.208600
										CHANNELS 3 Xrotation Yrotation Zrotation
										JOINT LeftForeArm
										{
											OFFSET 29.972298 0.000000 0.000000
											CHANNELS 3 Xrotation Yrotation Zrotation
											JOINT LeftHand
											{
												OFFSET 26.026505 0.000000 0.000000
												CHANNELS 3 Xrotation Yrotation Zrotation
												End Site
												{
													OFFSET 0 0 0
												}
											}
										}
									}
								}
							}
						}
						JOINT RightShoulder_virtual
						{
							OFFSET 0.000000 0.000000 0.000000
							CHANNELS 3 Xrotation Yrotation Zrotation
							JOINT RightShoulder
							{
								OFFSET -7.570500 7.247704 -3.868750
								CHANNELS 3 Xrotation Yrotation Zrotation
								JOINT RightShoulder_split
								{
									OFFSET -7.570500 7.247704 -3.868750
									CHANNELS 3 Xrotation Yrotation Zrotation
									JOINT RightArm
									{
										OFFSET -9.308998 -2.777710 0.208500
										CHANNELS 3 Xrotation Yrotation Zrotation
										JOINT RightForeArm
										{
											OFFSET -29.972300 0.000000 0.000000
											CHANNELS 3 Xrotation Yrotation Zrotation
											JOINT RightHand
											{
												OFFSET -26.026505 0.000000 0.000000
												CHANNELS 3 Xrotation Yrotation Zrotation
												End Site
												{
													OFFSET 0 0 0
												}
											}
										}
									}
								}
							}
						}
					}
				}
			}
		}
	}
}
MOTION
Frames: 4
Frame Time: 0.03333333
-1.341162 36.822506 85.587814 0.000000 0.000000 0.000000 16.932696 -26.546492 -9.498252 -9.738515 7.955432 5.774947 91.090763 -5.904079 -5.075067 30.238088 -8.772015 -23.317229 0.770584 -1.061827 -3.228756 0.000000 0.000000 0.000000 17.998851 -19.017980 -11.043422 5.088993 13.091153 -11.817861 63.105368 10.830108 -7.697358 38.378761 5.330435 22.031081 13.422356 -1.969551 -7.535626 0.000000 0.000000 0.000000 17.263686 -24.801455 -10.387254 7.018746 2.320970 4.610353 -3.225453 2.755688 1.720478 0.083264 -2.872782 1.379890 0.000000 0.000000 0.000000 -4.844766 2.758509 2.164404 -59.801954 -1.562615 18.796515 17.489200 15.852464 -16.343236 0.000000 0.000000 0.000000 -5.043581 2.834846 1.778408 -19.376475 0.903510 -15.696857 -4.253896 3.527688 -3.476174 11.926456 6.604281 -49.554057 72.207312 -31.687392 38.347066 0.000000 0.000000 0.000000 -5.088640 2.847320 1.862304 -18.356880 0.252749 22.557675 -8.754764 0.016924 -0.423721 4.559089 -9.079528 49.951424 7.178755 33.129563 9.292732 0.000000 0.000000 0.000000 
-0.959782 36.384529 88.954742 0.000000 0.000000 0.000000 18.499945 -28.036885 -9.600672 -5.147228 7.783927 4.303792 86.315423 -3.851195 -8.106165 27.509420 -5.915387 -22.442965 0.895254 -1.207314 -3.664527 0.000000 0.000000 0.000000 19.511569 -18.904961 -11.415731 5.248717 12.503162 -11.892780 63.698911 10.967329 -7.716507 37.228513 5.823199 21.221746 14.014249 -2.029457 -5.850225 0.000000 0.000000 0.000000 18.330428 -25.224201 -10.754748 6.894365 1.849895 5.143911 -3.495874 2.537125 2.032997 0.451895 -2.407910 1.194383 0.000000 0.000000 0.000000 -4.961458 2.614155 2.369469 -61.559143 -2.256991 19.775401 18.584530 16.701431 -16.939632 0.000000 0.000000 0.000000 -5.195660 2.630120 2.079679 -19.382120 1.186133 -15.589927 -3.752141 3.364226 -3.740904 13.047945 10.267869 -46.721410 75.320744 -33.735114 39.220165 0.000000 0.000000 0.000000 -5.276401 2.707031 2.104045 -18.328353 -1.022175 22.145790 -7.704861 -0.216625 0.263671 4.332953 -5.956027 52.573213 -1.827116 37.693219 13.749401 0.000000 0.000000 0.000000 
-0.644952 35.658218 92.157967 0.000000 0.000000 0.000000 20.293009 -28.828668 -9.422624 -1.201671 6.306064 2.746118 83.051043 -2.911055 -9.801350 26.464669 -4.294352 -24.120033 -1.492303 -1.431210 -2.761732 0.000000 0.000000 0.000000 21.517145 -18.436557 -11.609824 5.319568 11.234783 -11.796903 63.386184 11.071582 -7.200148 37.425421 6.578332 20.541360 13.770227 -2.078749 -3.933915 0.000000 0.000000 0.000000 19.795386 -25.064095 -10.786914 6.664162 1.307947 5.350805 -3.602021 2.264657 2.454124 0.723898 -1.860039 0.948847 0.000000 0.000000 0.000000 -4.817411 2.416474 2.702095 -63.540055 -2.848661 20.143181 19.383973 16.927700 -17.411617 0.000000 0.000000 0.000000 -5.210829 2.414869 2.497908 -19.432955 0.991791 -14.981371 -2.732017 2.966765 -4.004483 14.811084 11.522876 -43.610314 74.921930 -37.734217 38.375035 0.000000 0.000000 0.000000 -5.164424 2.525524 2.475908 -18.419559 -2.037615 21.702477 -6.448511 -0.909665 0.865902 4.629196 -2.879261 55.596323 -7.689179 44.024742 15.834298 0.000000 0.000000 0.000000 
-0.428126 34.631790 95.208122 0.000000 0.000000 0.000000 22.498037 -28.604829 -8.905556 1.496756 3.605342 1.034954 81.079045 -2.961582 -9.951994 26.825315 -3.843324 -27.029523 -3.124260 -1.778232 -1.297328 0.000000 0.000000 0.000000 24.009505 -17.929487 -11.589844 5.536238 9.746452 -11.541180 61.976167 11.151785 -6.394744 38.635607 7.432880 20.110029 12.421898 -2.148057 -2.096311 0.000000 0.000000 0.000000 21.944131 -24.417001 -10.533572 6.333973 0.816108 5.196802 -3.560533 2.012783 2.922533 0.820473 -1.350730 0.898666 0.000000 0.000000 0.000000 -4.527647 2.231138 3.114702 -65.643083 -3.229145 19.923571 19.857663 16.433454 -17.698624 0.000000 0.000000 0.000000 -5.118166 2.257033 2.948735 -19.523332 0.376266 -13.972098 -1.904753 2.628876 -4.242528 16.658476 10.940601 -40.552571 70.524517 -42.389667 35.031648 0.000000 0.000000 0.000000 -4.820246 2.372043 2.886038 -18.686392 -2.616372 21.382271 -5.363549 -1.684920 1.206355 5.441505 -0.426488 57.583665 -9.313173 50.893351 14.683479 0.000000 0.000000 0.000000 
